<?xml version="1.0" encoding="UTF-8"?>
<!DOCTYPE svg PUBLIC "-//W3C//DTD SVG 1.1//EN" "http://www.w3.org/Graphics/SVG/1.1/DTD/svg11.dtd">
<!-- Creator: CorelDRAW 2026 -->
<svg xmlns="http://www.w3.org/2000/svg" xml:space="preserve" width="113.162mm" height="19.7653mm" version="1.1" style="shape-rendering:geometricPrecision; text-rendering:geometricPrecision; image-rendering:optimizeQuality; fill-rule:evenodd; clip-rule:evenodd"
viewBox="0 0 5432.74 948.9"
 xmlns:xlink="http://www.w3.org/1999/xlink"
 xmlns:xodm="http://www.corel.com/coreldraw/odm/2003">
 <defs>
  <style type="text/css">
   <![CDATA[
    .fil0 {fill:#373435}
    .fil1 {fill:#373435;fill-rule:nonzero}
   ]]>
  </style>
 </defs>
 <g id="Capa_x0020_1">
  <metadata id="CorelCorpID_0Corel-Layer"/>
  <g id="_2227381451824">
   <path class="fil0" d="M734.32 0c42.15,0 76.31,25.56 76.31,57.1 0,31.52 -34.16,57.09 -76.31,57.09 -29.07,0 -54.34,-12.16 -67.23,-30.04 -62.83,4.22 -131.39,21.03 -206.36,51.96 -82.27,33.99 -152.64,75.65 -216.45,127.54 10.42,12.92 16.61,28.96 16.61,46.35 51.9,20.58 100.86,44.1 147.47,69.96 155,-114.33 346.58,-188.1 525.51,-193.45 13.59,-18.13 39.69,-27 66.98,-20.53 36.03,8.54 60.45,40.53 54.6,71.46 -5.85,30.92 -39.78,49.07 -75.8,40.54 -29.29,-6.95 -50.94,-29.41 -54.85,-54.19 -145.97,-3.42 -328.02,78.47 -475.18,180.02 69.19,41.62 133.28,88.35 194.31,138.13 92.65,-47.56 194.56,-90.07 301.43,-111.87 14.95,-30.06 47.74,-50.94 85.82,-50.94 52.14,0 94.39,39.15 94.39,87.45 0,33.82 -20.76,63.17 -51.13,77.71 -39.86,148.26 -154.25,520.33 -282.02,369.17 -107.52,-77.36 -220.71,-149.19 -363.94,-191.92 -37.19,24.21 -76.26,49.13 -125.55,77.95 -103.65,42.96 -203.53,20.97 -154.89,-118.31 -5.32,-0.04 -10.67,-0.07 -16.07,-0.05 -140.77,-20.34 -145.61,-95.62 -119.82,-200.19 21.43,-47.79 49.84,-96.16 87.2,-142.8 -3.67,-8.73 -5.7,-18.21 -5.7,-28.14 0,-42.79 37.44,-77.46 83.63,-77.46 8.22,0 16.18,1.1 23.68,3.16 105.48,-86.41 253.78,-158.59 461.28,-197.38 10.39,-22.3 38.74,-38.32 72.09,-38.32zm-52.59 573.45c72.19,61.49 140.52,126.82 208.59,192.42 31.84,28.8 46.23,30.09 61.37,-1.46 49.86,-78.4 63.48,-156.94 60.92,-212.12 -35.9,-6.63 -64.45,-32.1 -73.13,-64.79 -94.23,13.67 -168.54,43.74 -257.75,85.94zm-318.38 131.21c-54,-11.91 -112.2,-19.77 -175.69,-22.49 -10.59,37.81 0.1,66.95 39.28,80.78 32.14,-1.54 78.62,-24.66 136.41,-58.29zm7.29 -295.46c-78.51,63.86 -145.69,138.39 -194.26,219.49l-2.03 -0.17c-162.01,-10.37 -116.12,-114.31 -76.65,-215.21 10.84,-13.49 21.76,-26.52 32.81,-39.12 13.34,8.35 29.45,13.24 46.77,13.24 27.58,0 52.03,-12.37 67.26,-31.43 44.37,15.57 86.37,33.35 126.1,53.2zm112.58 276.61c35.76,-23.23 73.56,-47.24 120.72,-74.81l25.94 -12.6c24.45,25.28 47.44,51.91 69.03,79.81 25.32,46.75 50.65,93.51 75.97,140.27 24.31,55.46 -33.96,30.49 -122.68,-36.3 -60.06,-42.28 -109.29,-73.19 -168.99,-96.36zm114.33 -119.27c-62.44,34.12 -120.02,69.39 -171.24,100.46 -56.22,-15.64 -123.99,-26.71 -215.41,-35.28 37.45,-60.98 110.73,-133.73 200.88,-200.78 69.07,38.6 130.79,83.99 185.78,135.6z"/>
   <path class="fil1" d="M1780.98 161.65l-38.15 55.64c-20.14,-16.42 -42.53,-28.88 -67.17,-37.36 -24.64,-8.48 -50.21,-12.72 -76.71,-12.72 -14.31,0 -37.23,3.18 -68.76,9.54 -31.53,6.36 -63.46,26.23 -95.78,59.62 -32.33,33.39 -51.01,66.24 -56.04,98.57 -5.04,32.33 -7.55,54.85 -7.55,67.57 0,57.76 17.75,107.84 53.26,150.24 35.51,42.39 70.22,66.24 104.14,71.54 33.91,5.3 56.97,7.95 69.15,7.95 31.8,0 59.75,-5.04 83.87,-15.1 24.11,-10.07 44.64,-21.99 61.6,-35.77l37.36 56.44c-36.04,25.44 -70.61,41.6 -103.73,48.49 -33.12,6.89 -60.81,10.34 -83.06,10.34 -37.1,0 -72.6,-6.36 -106.52,-19.08 -33.92,-12.72 -73.4,-39.35 -118.44,-79.89 -45.04,-40.54 -67.57,-105.59 -67.57,-195.15 0,-86.91 28.48,-158.58 85.46,-215.02 56.97,-56.43 127.84,-84.65 212.63,-84.65 9.54,0 19.34,0 29.41,0 9.01,1.59 26.89,4.37 53.65,8.34 26.76,3.98 59.75,20.8 98.96,50.48zm42.92 332.67c0,-57.37 19.74,-105.59 59.22,-144.54 39.48,-39.08 88.89,-58.56 148.25,-58.56 59.88,0 109.43,19.34 148.65,58.16 39.21,38.69 58.82,86.78 58.82,144.14 0,14.31 -3.05,36.97 -9.14,67.7 -6.1,30.74 -27.69,61.07 -64.78,90.75 -37.1,29.81 -81.61,44.65 -133.55,44.65 -59.88,0 -109.43,-19.34 -148.64,-58.16 -39.21,-38.69 -58.82,-86.78 -58.82,-144.14zm65.98 0.4c0,35.5 10.6,66.24 31.93,92.21 21.2,25.97 42.79,40.94 64.52,44.91 21.86,3.98 36.7,5.96 44.64,5.96 9.01,0 24.24,-2.12 45.44,-6.36 21.2,-4.24 42.39,-19.08 63.32,-44.52 21.07,-25.43 31.53,-55.64 31.53,-90.62 0,-9.54 -1.59,-24.11 -4.77,-43.72 -3.18,-19.61 -14.84,-39.61 -35.11,-60.01 -20.14,-20.4 -39.75,-32.33 -58.56,-35.77 -18.95,-3.45 -32.86,-5.17 -41.87,-5.17 -7.95,0 -22.78,1.99 -44.64,5.96 -21.73,3.98 -43.32,18.68 -64.52,44.12 -21.33,25.43 -31.93,56.43 -31.93,93zm724.94 -132.75l0 -60.41 65.98 0 0 366.45c0,58.29 -18.81,102.54 -56.44,132.75 -37.62,30.21 -92.74,45.31 -165.34,45.31 -10.07,0 -20.54,-1.33 -31.4,-3.98 -10.86,-2.65 -30.07,-10.34 -57.63,-23.05 -27.56,-12.72 -50.61,-40.8 -69.16,-84.26l60.41 -27.02 7.15 13.51c22.26,37.1 46.24,57.37 71.94,60.81 25.7,3.44 40.54,5.3 44.51,5.56 3.98,0.26 7.02,0.4 9.14,0.4 31.8,0 58.16,-8.08 79.09,-24.24 20.94,-16.16 34.05,-38.02 39.35,-65.58l2.39 -21.46 0 -46.9c-3.71,7.02 -14.44,19.88 -32.19,38.56 -17.75,18.81 -50.74,28.22 -98.96,28.22l-10.33 0c-3.18,0 -6.49,-0.27 -9.94,-0.8 -3.44,-0.53 -15.5,-1.99 -36.16,-4.37 -20.67,-2.38 -48.76,-19.74 -84.26,-52.19 -35.51,-32.33 -53.26,-79.89 -53.26,-142.55 0,-5.83 0,-11 0,-15.5 0,-4.5 1.99,-19.61 5.96,-45.44 3.98,-25.7 18.55,-53.26 43.72,-82.41 25.17,-29.28 50.48,-47.16 75.91,-53.79 25.43,-6.62 46.37,-9.93 62.8,-9.93 11.66,0 26.37,1.59 44.12,4.77 17.75,3.18 35.37,10.6 52.86,22.26 17.49,11.66 30.74,26.76 39.75,45.31zm-255.16 135.53c0,36.7 10.33,67.7 31,93.27 20.67,25.57 40.01,40.01 58.03,43.45 18.02,3.45 28.75,5.17 32.19,5.17 3.44,0 7.02,0 10.73,0 12.19,0 28.62,-3.04 49.29,-9.14 20.67,-6.09 39.35,-21.73 56.04,-46.63 16.69,-25.04 25.04,-56.04 25.04,-93.27 0,-32.99 -6.75,-60.41 -20.4,-82.54 -13.65,-21.99 -31.4,-38.02 -53.52,-47.83 -22.13,-9.8 -42.53,-14.71 -61.21,-14.71 -32.59,0 -60.68,10.99 -84.39,33.12 -23.71,21.99 -38.02,51.93 -42.79,89.69l0 29.41zm413.34 187.2l0 -383.14 65.98 0 0 62.8 5.56 -8.75c25.43,-36.56 49.95,-56.57 73.53,-60.01 23.58,-3.45 40.14,-5.17 49.68,-5.17 39.75,0 71.01,13.51 93.8,40.54 22.78,27.02 34.18,64.38 34.18,112.08l0 241.65 -65.97 0 0 -226.55c0,-34.97 -7.42,-62 -22.26,-81.08 -14.84,-19.08 -35.77,-28.62 -62.8,-28.62 -4.24,0 -7.68,0 -10.33,0 -2.65,0 -12.19,1.99 -28.62,5.96 -16.43,3.98 -31.66,16.16 -45.7,36.56 -14.04,20.4 -21.07,47.3 -21.07,80.68l0 213.03 -65.98 0zm415.74 0l0 -383.14 65.98 0 0 383.14 -65.98 0zm-12.72 -494.43c0,-12.19 4.24,-22.78 12.72,-31.8 8.48,-9.01 19.34,-13.51 32.59,-13.51 12.72,0 23.58,4.37 32.59,13.12 9.01,8.75 13.51,19.74 13.51,32.99 0,12.72 -4.51,23.45 -13.51,32.19 -9.01,8.75 -19.87,13.12 -32.59,13.12 -12.72,0 -23.45,-4.64 -32.19,-13.91 -8.75,-9.28 -13.12,-20.01 -13.12,-32.19zm477.73 170.11l0 -248.01 65.98 0 0 572.32 -65.98 0 0 -60.41c-3.71,7.82 -14.58,21.86 -32.59,42.13 -18.02,20.13 -52.99,30.21 -104.92,30.21 -6.36,0 -12.72,0 -19.08,0 -9.54,-1.59 -26.5,-4.37 -50.87,-8.35 -24.37,-3.98 -50.74,-24.11 -79.09,-60.41 -28.35,-36.3 -42.53,-79.89 -42.53,-130.76 0,-7.95 0,-16.16 0,-24.64 1.59,-7.42 3.71,-18.81 6.36,-34.18 2.65,-15.37 14.97,-40.8 36.96,-76.31 21.99,-35.51 49.95,-56.3 83.86,-62.4 33.92,-6.09 58.03,-9.14 72.33,-9.14 47.7,0 87.44,18.81 119.24,56.44l10.33 13.51zm-256.75 136.72c0,37.09 10.47,68.23 31.4,93.4 20.93,25.18 41.73,39.08 62.4,41.73 20.67,2.65 32.86,3.98 36.57,3.98 36.56,0 67.17,-13.51 91.81,-40.54 24.64,-27.03 36.96,-62 36.96,-104.93 0,-35.51 -8.75,-65.18 -26.23,-89.03 -17.49,-23.85 -37.1,-38.29 -58.82,-43.32 -21.72,-5.04 -37.09,-7.55 -46.1,-7.55 -36.56,0 -67.03,13.51 -91.41,40.54 -24.38,27.03 -36.56,62.27 -36.56,105.72zm721.77 -135.13l0 -60.41 65.97 0 0 383.14 -65.97 0 0 -55.64 -19.08 22.78c-31.27,29.81 -70.22,44.78 -116.85,44.78 -4.24,0 -8.75,-0.13 -13.51,-0.4 -4.77,-0.26 -19.08,-2.39 -42.92,-6.36 -23.85,-3.98 -49.42,-19.47 -76.71,-46.37 -27.29,-27.03 -43.85,-54.98 -49.68,-84.13 -5.83,-29.15 -8.75,-51.27 -8.75,-66.64 0,-10.6 1.06,-23.32 3.18,-38.02 2.12,-14.84 7.15,-31.27 15.1,-49.29 7.95,-17.88 19.34,-36.04 34.18,-54.32 14.84,-18.28 34.58,-32.86 59.22,-43.99 24.64,-11.13 49.94,-16.69 75.91,-16.69 28.09,0 54.32,5.96 78.7,17.89 24.37,11.92 44.78,29.81 61.21,53.65zm-258.34 137.91c0,30.61 7.55,57.37 22.66,80.02 15.1,22.78 32.59,38.02 52.46,45.97 19.87,7.95 38.55,11.92 56.04,11.92 23.32,0 48.89,-8.48 76.71,-25.31 27.82,-16.96 43.59,-38.29 47.3,-63.86 3.71,-25.7 5.56,-41.07 5.56,-46.37 0,-5.3 0,-9.28 0,-11.93 0,-24.24 -4.64,-46.37 -13.91,-66.24 -9.28,-19.74 -24.24,-37.23 -44.91,-52.19 -20.67,-15.1 -44.78,-22.66 -72.33,-22.66 -27.03,0 -51.94,8.61 -74.72,25.7 -22.79,17.23 -37.1,35.37 -42.92,54.32 -5.83,19.07 -9.28,33.12 -10.34,41.99 -1.06,9.01 -1.59,18.55 -1.59,28.62zm364.86 -141.09l0 -57.24 55.64 0 0 -104.92 65.98 0 0 104.92 105.72 0 0 57.24 -105.72 0 0 196.34 0 7.95 0 25.17c0,13.65 4.37,24.78 13.12,33.39 8.74,8.61 21.06,12.99 36.96,12.99 11.66,0 24.64,-2.52 38.95,-7.42l7.15 -2.91 16.69 58.69 -11.13 3.18c-25.96,5.96 -47.69,8.87 -65.18,8.87 -36.43,0 -62.67,-10.99 -78.56,-32.99 -16.03,-21.99 -23.98,-56.57 -23.98,-103.73l0 -199.52 -55.64 0zm261.52 173.69l0 -230.92 65.98 0 0 223.9c0,22.26 1.72,39.08 5.17,50.21 3.45,11.13 11.66,23.58 24.64,37.49 12.98,13.78 35.64,20.67 67.97,20.67 65.18,0 97.77,-36.16 97.77,-108.37l0 -223.9 65.98 0 0 230.92c0,94.06 -23.72,144.93 -71.14,152.62 -47.43,7.68 -73.92,11.53 -79.49,11.53 -5.57,0 -9.94,0 -13.12,0l-10.34 0c-3.18,0 -18.02,-1.99 -44.51,-5.96 -26.5,-3.98 -51.27,-19.74 -74.32,-47.43 -23.05,-27.56 -34.58,-64.52 -34.58,-110.76zm419.71 152.22l0 -383.14 65.98 0 0 61.21 7.15 -11.13c11.66,-15.9 23.58,-28.09 35.51,-36.56 11.92,-8.48 23.05,-14.04 33.12,-16.69 10.07,-2.65 19.07,-4.24 27.02,-4.77 8.08,-0.53 12.59,-0.8 13.65,-0.8 24.37,0 46.23,5.83 65.31,17.49 19.21,11.66 32.99,27.56 41.47,47.69l8.74 -13.51c18.55,-25.96 37.89,-41.07 58.16,-45.31 20.14,-4.24 35.77,-6.36 46.9,-6.36 20.67,0 39.61,3.84 56.84,11.53 17.22,7.68 30.74,18.15 40.54,31.4 9.8,13.25 16.56,27.03 20.27,41.34 3.71,14.31 5.56,35.77 5.56,64.38l0 243.24 -65.97 0 0 -231.31c0,-31.27 -6.1,-55.51 -18.42,-72.73 -12.19,-17.22 -29.28,-25.83 -51.14,-25.83 -4.77,0 -9.54,0 -14.31,0 -4.77,1.59 -13.12,3.71 -24.78,6.36 -11.66,2.65 -23.85,12.85 -36.3,30.61 -12.59,17.75 -18.81,40.67 -18.81,68.76l0 224.16 -65.97 0 0 -232.11 0 -36.56c-2.65,-18.55 -10.6,-33.39 -23.72,-44.51 -13.12,-11.13 -29.01,-16.69 -47.69,-16.69 -14.97,0 -34.32,6.23 -57.76,18.68 -23.58,12.45 -35.37,44.12 -35.37,94.99l0 216.21 -65.98 0z"/>
  </g>
 </g>
</svg>
