<?xml version="1.0" encoding="UTF-8"?>
<!DOCTYPE svg PUBLIC "-//W3C//DTD SVG 1.1//EN" "http://www.w3.org/Graphics/SVG/1.1/DTD/svg11.dtd">
<!-- Creator: CorelDRAW 2026 -->
<svg xmlns="http://www.w3.org/2000/svg" xml:space="preserve" width="23.7004mm" height="23.7004mm" version="1.1" style="shape-rendering:geometricPrecision; text-rendering:geometricPrecision; image-rendering:optimizeQuality; fill-rule:evenodd; clip-rule:evenodd"
viewBox="0 0 1016.72 1016.72"
 xmlns:xlink="http://www.w3.org/1999/xlink"
 xmlns:xodm="http://www.corel.com/coreldraw/odm/2003">
 <defs>
  <style type="text/css">
   <![CDATA[
    .fil1 {fill:#FEFEFE}
    .fil0 {fill:url(#id0)}
   ]]>
  </style>
  <radialGradient id="id0" gradientUnits="userSpaceOnUse" gradientTransform="matrix(1.90614 0.423292 -0.423292 1.90614 -34 -409)" cx="203.34" cy="355.85" r="508.36" fx="203.34" fy="355.85">
   <stop offset="0" style="stop-opacity:1; stop-color:#5788A3"/>
   <stop offset="1" style="stop-opacity:1; stop-color:#87D5F7"/>
  </radialGradient>
 </defs>
 <g id="Capa_x0020_1">
  <metadata id="CorelCorpID_0Corel-Layer"/>
  <g id="_2228174616704">
   <path class="fil0" d="M508.36 0c280.76,0 508.36,227.6 508.36,508.36 0,280.76 -227.6,508.36 -508.36,508.36 -280.76,0 -508.36,-227.6 -508.36,-508.36 0,-280.76 227.6,-508.36 508.36,-508.36z"/>
   <path class="fil1" d="M624.62 186.79c28.57,0 51.72,17.33 51.72,38.7 0,21.36 -23.15,38.69 -51.72,38.69 -19.71,0 -36.83,-8.24 -45.57,-20.36 -42.59,2.87 -89.06,14.26 -139.86,35.22 -55.76,23.04 -103.45,51.27 -146.7,86.45 7.07,8.76 11.26,19.63 11.26,31.41 35.17,13.95 68.36,29.89 99.95,47.42 105.05,-77.49 234.9,-127.49 356.17,-131.12 9.21,-12.29 26.9,-18.29 45.4,-13.91 24.41,5.79 40.97,27.47 37,48.43 -3.97,20.96 -26.96,33.26 -51.37,27.48 -19.86,-4.71 -34.52,-19.94 -37.18,-36.73 -98.93,-2.32 -222.31,53.19 -322.06,122.01 46.9,28.21 90.33,59.87 131.69,93.61 62.79,-32.23 131.87,-61.04 204.3,-75.82 10.13,-20.38 32.35,-34.52 58.17,-34.52 35.34,0 63.97,26.54 63.97,59.27 0,22.93 -14.08,42.82 -34.66,52.67 -27.02,100.48 -104.54,352.66 -191.14,250.21 -72.87,-52.43 -149.59,-101.12 -246.66,-130.08 -25.21,16.41 -51.69,33.3 -85.09,52.83 -70.25,29.12 -137.95,14.21 -104.98,-80.19 -3.61,-0.03 -7.23,-0.05 -10.89,-0.03 -95.41,-13.78 -98.68,-64.8 -81.21,-135.68 14.52,-32.39 33.78,-65.18 59.1,-96.79 -2.49,-5.91 -3.87,-12.34 -3.87,-19.07 0,-29 25.38,-52.5 56.69,-52.5 5.57,0 10.96,0.75 16.05,2.14 71.49,-58.57 172,-107.48 312.63,-133.78 7.04,-15.11 26.26,-25.97 48.86,-25.97zm-35.65 388.67c48.93,41.67 95.24,85.96 141.38,130.41 21.58,19.52 31.33,20.4 41.59,-0.99 33.8,-53.14 43.03,-106.36 41.29,-143.76 -24.33,-4.5 -43.68,-21.75 -49.57,-43.91 -63.86,9.27 -114.23,29.64 -174.7,58.25zm-215.78 88.92c-36.6,-8.07 -76.05,-13.4 -119.08,-15.24 -7.18,25.62 0.07,45.37 26.62,54.75 21.78,-1.05 53.29,-16.71 92.46,-39.51zm4.93 -200.26c-53.21,43.28 -98.74,93.8 -131.66,148.76l-1.38 -0.12c-109.8,-7.02 -78.7,-77.47 -51.95,-145.86 7.34,-9.14 14.75,-17.97 22.23,-26.52 9.05,5.66 19.96,8.97 31.7,8.97 18.69,0 35.26,-8.38 45.58,-21.3 30.08,10.56 58.54,22.6 85.47,36.06zm76.31 187.48c24.23,-15.74 49.85,-32.02 81.82,-50.71l17.58 -8.54c16.57,17.13 32.15,35.18 46.79,54.09 17.16,31.68 34.33,63.38 51.49,95.07 16.48,37.59 -23.02,20.66 -83.15,-24.6 -40.7,-28.66 -74.07,-49.61 -114.53,-65.31zm77.49 -80.83c-42.32,23.12 -81.34,47.03 -116.06,68.09 -38.11,-10.6 -84.04,-18.1 -146,-23.92 25.38,-41.32 75.05,-90.64 136.15,-136.08 46.81,26.16 88.65,56.93 125.91,91.91z"/>
  </g>
 </g>
</svg>
